Coordinates

Units are S.I. units (second, meters, Newtons, ...)
If the header above contains a line with 'inDegrees', this indicates whether rotational values are in degrees (yes) or radians (no).

inDegrees=no
nColumns=22
nRows=12
DataType=double
version=3
OpenSimVersion=4.6-2026-03-31-d6972f9e6
endheader
time	/jointset/ground_pelvis/pelvis_tilt/value	/jointset/ground_pelvis/pelvis_list/value	/jointset/ground_pelvis/pelvis_rotation/value	/jointset/ground_pelvis/pelvis_tx/value	/jointset/ground_pelvis/pelvis_ty/value	/jointset/ground_pelvis/pelvis_tz/value	/jointset/hip_r/hip_flexion_r/value	/jointset/hip_r/hip_adduction_r/value	/jointset/hip_r/hip_rotation_r/value	/jointset/walker_knee_r/knee_angle_r/value	/jointset/patellofemoral_r/knee_angle_r_beta/value	/jointset/ankle_r/ankle_angle_r/value	/jointset/hip_l/hip_flexion_l/value	/jointset/hip_l/hip_adduction_l/value	/jointset/hip_l/hip_rotation_l/value	/jointset/walker_knee_l/knee_angle_l/value	/jointset/patellofemoral_l/knee_angle_l_beta/value	/jointset/ankle_l/ankle_angle_l/value	/jointset/back/lumbar_extension/value	/jointset/back/lumbar_bending/value	/jointset/back/lumbar_rotation/value
20.995	-0.4080465940592621	-0.157347176425301	3.140371553754234	-3.25627968501614	0.5190711298274269	2.487424023619181	1.258509357867166	-0.2839782006478121	0.2651836468971551	2.16710507042099	2.167105070583933	0.578118159190869	1.121240767139579	-0.1770287005713516	-0.01602599237925751	2.164167838408726	2.164167837783924	0.4667913784091989	-1.532385879922565	-0.06382458667452781	-0.03088826294737627
21	-0.4080942971263792	-0.1571390965842396	3.140373135697571	-3.256088810545404	0.5183612600896783	2.487401783853835	1.260249325740567	-0.2838139690299706	0.2652077277068662	2.168393102065714	2.168393102183802	0.5780845050292449	1.123034500482754	-0.1776373412521063	-0.01560308752526952	2.165578124743256	2.165578124063554	0.4663848282209633	-1.532622016932508	-0.06401588108775609	-0.03054406066701479
21.005	-0.4080388821297749	-0.1569817233343419	3.140374326548045	-3.255907224400253	0.5177483012590305	2.48737922793001	1.261879627837424	-0.2836269781428848	0.2652608194507212	2.169488003376428	2.169488003437303	0.578025129571285	1.124699451773293	-0.1781527277576273	-0.01524563451029333	2.166768953705842	2.166768952981683	0.4659669266815872	-1.532743142348268	-0.06423458514736956	-0.03024554485866031
21.01	-0.4078815679052931	-0.1568755452711842	3.140375169954085	-3.255734835425782	0.5172346310138768	2.487356382187424	1.263392738825984	-0.2834168051842051	0.2653417177182222	2.170384759776525	2.170384759770146	0.5779414481972003	1.126228069145568	-0.1785735525675657	-0.01495632913615695	2.167735278387964	2.167735277629689	0.4655394045618979	-1.53275126739459	-0.06447940790666369	-0.02999119305634525
21.015	-0.4076241462576605	-0.1568208425933149	3.140375712073316	-3.255571535618862	0.5168226660611935	2.487333366809592	1.264780541114482	-0.2831839570962548	0.2654484356451775	2.171078013674702	2.171078013593772	0.5778351688669686	1.127612172364538	-0.1788982098567279	-0.01473757787815016	2.168471754644016	2.168471753861603	0.4651046910113624	-1.532648872583372	-0.06474877435356469	-0.02977955844770208
21.02	-0.4072689472194612	-0.1568177496456753	3.140375999861095	-3.255417200223761	0.5165148498419909	2.487310387014642	1.266034430961201	-0.2829298946782366	0.2655783053898192	2.17156208582883	2.171562085668988	0.5777082710216215	1.128843005517756	-0.1791247906284792	-0.0145915493200923	2.16897273149723	2.168972730700183	0.464665921496613	-1.532438882191683	-0.06504086896389873	-0.02960937631600907
21.025	-0.4068187973112504	-0.1568663120281371	3.140376078900767	-3.255271689483893	0.5163136378098986	2.487287719854668	1.267145431851634	-0.2826570280916796	0.2657280925598461	2.171831011399194	2.17183101115897	0.5775629638182749	1.129911307116316	-0.1792511125610299	-0.01452023605777991	2.169232257908485	2.169232257105878	0.4642269199239504	-1.532124629296852	-0.0653536885989251	-0.0294796601320542
21.03	-0.4062769702744731	-0.1569665334331019	3.14037599096299	-3.255134852265435	0.5162214801543834	2.487265697497223	1.268104314722962	-0.2823686846384271	0.2658941141202579	2.171878593233538	2.17187859291409	0.5774016243763143	1.130807399814675	-0.179274782057719	-0.01452551805794616	2.169244109404906	2.169244108605587	0.4637921526707453	-1.531709810848225	-0.06568510274011767	-0.02938977903578908
21.035	-0.4056471367919031	-0.1571184092564813	3.140375771526089	-3.255006531318565	0.5162408030403209	2.487244688137207	1.268901714879714	-0.2820690542842528	0.2660723480850202	2.17169847329147	2.171698472896138	0.5772267214450082	1.131521291095331	-0.1791932809547695	-0.01460921984922667	2.169001832819196	2.169001832032082	0.4633666591403349	-1.531198439837966	-0.06603291724421766	-0.02933950849154164
21.04	-0.4049333228406503	-0.1573219457193629	3.140375447505942	-3.254886569538302	0.516373989828504	2.487225075969133	1.269528231961046	-0.281763121154117	0.2662585242409463	2.171284220080235	2.171284219613957	0.5770407320315684	1.132042771906786	-0.1790040676596556	-0.01477315505404284	2.168498803883859	2.168498803118236	0.4629559671271299	-1.530594804305192	-0.06639493614686483	-0.02932904800438916
21.045	-0.4041398798613627	-0.1575771642861466	3.140375035443393	-3.25477481677651	0.5166233625062049	2.487207241800988	1.269974509780472	-0.2814565878470398	0.2664481905329585	2.17062942830762	2.170629427776211	0.5768460560153706	1.132361509532932	-0.1787046836757774	-0.01501915156332503	2.167728295707677	2.167728294973419	0.4625659980574979	-1.529903435270414	-0.06676901670178567	-0.02935900471333707
21.05	-0.4032714613194533	-0.1578840913554664	3.140374540236855	-3.254671137219835	0.5169911623121228	2.4871915451394	1.270231303598834	-0.2811557922053654	0.266636757441394	2.169727827192289	2.169727826601648	0.5766449306098055	1.132467142123921	-0.1782928628987253	-0.0153490542781786	2.166683560731991	2.166683560039591	0.4622029618534534	-1.529129076821616	-0.06715311629506848	-0.02943034675572523
